# xmcd
#
# Track frame offsets: 
#        150
#        17400
#        27326
#        38873
#        49291
#        65547
#        81058
#        94782
#        109058
#        121751
#        141152
#        152300
#        168786
#        181740
#        191441
#        202088
#        215017
#        231298
#        244907
#        264164
#
# Disc length: 3740 seconds
#
# Revision: 0
# Processed by: cddbd v1.5.2PL0 Copyright (c) Steve Scherf et al.
# Submitted via: ExactAudioCopyFreeDBPlugin 1.0
#
DISCID=070e9a14
DTITLE=Memphis Slim - The Blues 1940-1961 - CD3 - Exile to Europe
DYEAR=2012
DGENRE=Blues
TTITLE0=Raining the blues (1960)
TTITLE1=Baby Doll (1960)
TTITLE2=Rack'em Jack (1960)
TTITLE3=Lucille (1960)
TTITLE4=Don't think you're so smart (1960)
TTITLE5=Caught the old coon at last (1960)
TTITLE6=Pinetop's blues (1960)
TTITLE7=Angel child (1960)
TTITLE8=Lonesome traveler (1960)
TTITLE9=Hey Slim (1960)
TTITLE10=Lonesome (1961)
TTITLE11=Cold blooded woman (1961)
TTITLE12=One man's mad (1961)
TTITLE13=Big Bertha (1961)
TTITLE14=How long blues (1961)
TTITLE15=Love my baby (1961)
TTITLE16=When the sun goes down (1961)
TTITLE17=Someday baby (1961)
TTITLE18=Highway 51 (1961)
TTITLE19=Sitting on top of the world (1961)
EXTD=
EXTT0=
EXTT1=
EXTT2=
EXTT3=
EXTT4=
EXTT5=
EXTT6=
EXTT7=
EXTT8=
EXTT9=
EXTT10=
EXTT11=
EXTT12=
EXTT13=
EXTT14=
EXTT15=
EXTT16=
EXTT17=
EXTT18=
EXTT19=
PLAYORDER=
